<svg width="60" height="60" viewBox="0 0 60 60" fill="none" xmlns="http://www.w3.org/2000/svg">
<circle cx="30" cy="30" r="20" fill="#A6A6A6"/>
<path d="M39.9998 26.6667H33.3332V20C33.3332 19.1159 32.982 18.2681 32.3569 17.643C31.7317 17.0179 30.8839 16.6667 29.9998 16.6667C29.1158 16.6667 28.2679 17.0179 27.6428 17.643C27.0177 18.2681 26.6665 19.1159 26.6665 20L26.7848 26.6667H19.9998C19.1158 26.6667 18.2679 27.0179 17.6428 27.643C17.0177 28.2681 16.6665 29.1159 16.6665 30C16.6665 30.8841 17.0177 31.7319 17.6428 32.357C18.2679 32.9821 19.1158 33.3333 19.9998 33.3333L26.7848 33.215L26.6665 40C26.6665 40.8841 27.0177 41.7319 27.6428 42.357C28.2679 42.9821 29.1158 43.3333 29.9998 43.3333C30.8839 43.3333 31.7317 42.9821 32.3569 42.357C32.982 41.7319 33.3332 40.8841 33.3332 40V33.215L39.9998 33.3333C40.8839 33.3333 41.7317 32.9821 42.3569 32.357C42.982 31.7319 43.3332 30.8841 43.3332 30C43.3332 29.1159 42.982 28.2681 42.3569 27.643C41.7317 27.0179 40.8839 26.6667 39.9998 26.6667Z" fill="#363636"/>
</svg>
