<svg width="16" height="16" viewBox="0 0 16 16" fill="none" xmlns="http://www.w3.org/2000/svg">
<circle cx="8" cy="8" r="8" fill="#A6A6A6"/>
<path d="M11.9998 6.66666H9.33317V4C9.33317 3.64638 9.19269 3.30724 8.94265 3.05719C8.6926 2.80714 8.35346 2.66666 7.99984 2.66666C7.64621 2.66666 7.30708 2.80714 7.05703 3.05719C6.80698 3.30724 6.6665 3.64638 6.6665 4L6.71384 6.66666H3.99984C3.64622 6.66666 3.30708 6.80714 3.05703 7.05719C2.80698 7.30724 2.6665 7.64638 2.6665 8C2.6665 8.35362 2.80698 8.69276 3.05703 8.94281C3.30708 9.19285 3.64622 9.33333 3.99984 9.33333L6.71384 9.286L6.6665 12C6.6665 12.3536 6.80698 12.6928 7.05703 12.9428C7.30708 13.1929 7.64621 13.3333 7.99984 13.3333C8.35346 13.3333 8.6926 13.1929 8.94265 12.9428C9.19269 12.6928 9.33317 12.3536 9.33317 12V9.286L11.9998 9.33333C12.3535 9.33333 12.6926 9.19285 12.9426 8.94281C13.1927 8.69276 13.3332 8.35362 13.3332 8C13.3332 7.64638 13.1927 7.30724 12.9426 7.05719C12.6926 6.80714 12.3535 6.66666 11.9998 6.66666Z" fill="#363636"/>
</svg>
