<svg width="16" height="16" viewBox="0 0 16 16" fill="none" xmlns="http://www.w3.org/2000/svg">
<path fill-rule="evenodd" clip-rule="evenodd" d="M4.7998 2.66667C4.7998 2.38378 4.91219 2.11246 5.11222 1.91243C5.31226 1.71239 5.58357 1.60001 5.86647 1.60001C6.14937 1.60001 6.42068 1.71239 6.62072 1.91243C6.82076 2.11246 6.93314 2.38378 6.93314 2.66667C6.93314 2.94957 6.82076 3.22088 6.62072 3.42092C6.42068 3.62096 6.14937 3.73334 5.86647 3.73334C5.58357 3.73334 5.31226 3.62096 5.11222 3.42092C4.91219 3.22088 4.7998 2.94957 4.7998 2.66667ZM9.06647 2.66667C9.06647 2.38378 9.17885 2.11246 9.37889 1.91243C9.57893 1.71239 9.85024 1.60001 10.1331 1.60001C10.416 1.60001 10.6873 1.71239 10.8874 1.91243C11.0874 2.11246 11.1998 2.38378 11.1998 2.66667C11.1998 2.94957 11.0874 3.22088 10.8874 3.42092C10.6873 3.62096 10.416 3.73334 10.1331 3.73334C9.85024 3.73334 9.57893 3.62096 9.37889 3.42092C9.17885 3.22088 9.06647 2.94957 9.06647 2.66667ZM4.7998 8.00001C4.7998 7.71711 4.91219 7.4458 5.11222 7.24576C5.31226 7.04572 5.58357 6.93334 5.86647 6.93334C6.14937 6.93334 6.42068 7.04572 6.62072 7.24576C6.82076 7.4458 6.93314 7.71711 6.93314 8.00001C6.93314 8.2829 6.82076 8.55421 6.62072 8.75425C6.42068 8.95429 6.14937 9.06667 5.86647 9.06667C5.58357 9.06667 5.31226 8.95429 5.11222 8.75425C4.91219 8.55421 4.7998 8.2829 4.7998 8.00001ZM9.06647 8.00001C9.06647 7.71711 9.17885 7.4458 9.37889 7.24576C9.57893 7.04572 9.85024 6.93334 10.1331 6.93334C10.416 6.93334 10.6873 7.04572 10.8874 7.24576C11.0874 7.4458 11.1998 7.71711 11.1998 8.00001C11.1998 8.2829 11.0874 8.55421 10.8874 8.75425C10.6873 8.95429 10.416 9.06667 10.1331 9.06667C9.85024 9.06667 9.57893 8.95429 9.37889 8.75425C9.17885 8.55421 9.06647 8.2829 9.06647 8.00001ZM4.7998 13.3333C4.7998 13.0504 4.91219 12.7791 5.11222 12.5791C5.31226 12.3791 5.58357 12.2667 5.86647 12.2667C6.14937 12.2667 6.42068 12.3791 6.62072 12.5791C6.82076 12.7791 6.93314 13.0504 6.93314 13.3333C6.93314 13.6162 6.82076 13.8875 6.62072 14.0876C6.42068 14.2876 6.14937 14.4 5.86647 14.4C5.58357 14.4 5.31226 14.2876 5.11222 14.0876C4.91219 13.8875 4.7998 13.6162 4.7998 13.3333ZM9.06647 13.3333C9.06647 13.0504 9.17885 12.7791 9.37889 12.5791C9.57893 12.3791 9.85024 12.2667 10.1331 12.2667C10.416 12.2667 10.6873 12.3791 10.8874 12.5791C11.0874 12.7791 11.1998 13.0504 11.1998 13.3333C11.1998 13.6162 11.0874 13.8875 10.8874 14.0876C10.6873 14.2876 10.416 14.4 10.1331 14.4C9.85024 14.4 9.57893 14.2876 9.37889 14.0876C9.17885 13.8875 9.06647 13.6162 9.06647 13.3333Z" fill="#7B7B7B"/>
</svg>
