<svg width="16" height="16" viewBox="0 0 16 16" fill="none" xmlns="http://www.w3.org/2000/svg">
<path d="M1.12463 3.25807C1.22667 3.1241 1.38039 3.03421 1.552 3.00814C1.7236 2.98207 1.89906 3.02196 2.0398 3.11904L14.714 11.86C14.7864 11.907 14.8482 11.9674 14.8956 12.0376C14.9431 12.1078 14.9753 12.1863 14.9903 12.2686C15.0053 12.3508 15.0029 12.4351 14.9831 12.5164C14.9634 12.5978 14.9267 12.6745 14.8752 12.7421C14.8238 12.8097 14.7586 12.8667 14.6836 12.9099C14.6086 12.9531 14.5253 12.9816 14.4385 12.9935C14.3518 13.0055 14.2634 13.0008 14.1786 12.9797C14.0938 12.9586 14.0143 12.9215 13.9448 12.8706L11.9799 11.5153C10.917 12.3153 9.55866 12.9896 7.9923 12.9896C6.26074 12.9896 4.78442 12.1638 3.68045 11.2598C2.57036 10.3524 1.76883 9.30761 1.37549 8.74403C1.22035 8.52256 1.13756 8.26229 1.13756 7.99606C1.13756 7.72983 1.22035 7.46956 1.37549 7.24809C1.68404 6.80438 2.2452 6.06598 3.00828 5.32925L1.2706 4.12966C1.12994 4.03247 1.03556 3.88607 1.00819 3.72264C0.980814 3.5592 1.0227 3.3921 1.12463 3.25807ZM2.46722 7.9382C2.45492 7.95478 2.44822 7.97452 2.44799 7.99481C2.44799 8.01229 2.45324 8.03227 2.46722 8.05142C2.82734 8.56838 3.55283 9.50824 4.5353 10.3132C5.52302 11.1232 6.70478 11.7409 7.9923 11.7409C9.03683 11.7409 10.0114 11.3347 10.868 10.7495L8.92145 9.40585C8.62633 9.58239 8.28254 9.6709 7.93421 9.66C7.58589 9.64911 7.24893 9.5393 6.96661 9.34469C6.68429 9.15007 6.46949 8.87953 6.34979 8.56781C6.23009 8.25608 6.21095 7.91739 6.29483 7.59523L4.08428 6.07014C3.47958 6.63851 2.93772 7.26448 2.46722 7.9382ZM7.9923 4.2487C7.54128 4.2487 7.10336 4.32363 6.68205 4.45765C6.59978 4.48584 6.51241 4.49807 6.4251 4.49362C6.33779 4.48917 6.25229 4.46813 6.17365 4.43174C6.095 4.39534 6.02479 4.34434 5.96716 4.28171C5.90952 4.21909 5.86562 4.14612 5.83804 4.0671C5.81046 3.98808 5.79976 3.9046 5.80656 3.82157C5.81337 3.73855 5.83754 3.65767 5.87766 3.58368C5.91778 3.50969 5.97304 3.44409 6.04018 3.39074C6.10732 3.33739 6.18499 3.29738 6.26861 3.27305C6.82391 3.09393 7.40602 3.00172 7.9923 3C9.72386 3 11.2002 3.82581 12.3042 4.72987C13.4142 5.63809 14.2158 6.68201 14.6091 7.24642C14.7643 7.46802 14.8472 7.72843 14.8472 7.99481C14.8472 8.26119 14.7643 8.5216 14.6091 8.7432C14.513 8.88139 14.3923 9.04705 14.2507 9.23186C14.1998 9.298 14.1357 9.35394 14.0621 9.39649C13.9885 9.43904 13.9068 9.46737 13.8217 9.47985C13.7366 9.49234 13.6498 9.48874 13.5661 9.46925C13.4825 9.44977 13.4037 9.41479 13.3343 9.3663C13.2648 9.31782 13.2061 9.25678 13.1614 9.18668C13.1167 9.11658 13.087 9.03878 13.0739 8.95773C13.0608 8.87668 13.0645 8.79396 13.085 8.7143C13.1055 8.63464 13.1422 8.5596 13.1931 8.49346C13.3225 8.32613 13.4309 8.17546 13.5174 8.05225C13.5297 8.03556 13.5363 8.01564 13.5363 7.99523C13.5363 7.97481 13.5297 7.9549 13.5174 7.9382C13.1573 7.42124 12.4318 6.48138 11.4493 5.67639C10.4616 4.86639 9.27983 4.2487 7.9923 4.2487Z" fill="black"/>
</svg>
