<svg width="16" height="16" viewBox="0 0 16 16" fill="none" xmlns="http://www.w3.org/2000/svg">
<path d="M8.99984 4.33333L11.6665 7M2.6665 13.3333H5.33317L12.3332 6.33333C12.5083 6.15824 12.6472 5.95037 12.7419 5.72159C12.8367 5.49282 12.8855 5.24762 12.8855 5C12.8855 4.75238 12.8367 4.50718 12.7419 4.2784C12.6472 4.04963 12.5083 3.84176 12.3332 3.66666C12.1581 3.49157 11.9502 3.35268 11.7214 3.25791C11.4927 3.16315 11.2475 3.11438 10.9998 3.11438C10.7522 3.11438 10.507 3.16315 10.2782 3.25791C10.0495 3.35268 9.8416 3.49157 9.6665 3.66666L2.6665 10.6667V13.3333Z" stroke="#375EC1" stroke-width="2" stroke-linecap="round" stroke-linejoin="round"/>
</svg>
