<svg width="16" height="16" viewBox="0 0 16 16" fill="none" xmlns="http://www.w3.org/2000/svg">
<path fill-rule="evenodd" clip-rule="evenodd" d="M8 15C9.85652 15 11.637 14.2625 12.9497 12.9497C14.2625 11.637 15 9.85652 15 8C15 6.14348 14.2625 4.36301 12.9497 3.05025C11.637 1.7375 9.85652 1 8 1C6.14348 1 4.36301 1.7375 3.05025 3.05025C1.7375 4.36301 1 6.14348 1 8C1 9.85652 1.7375 11.637 3.05025 12.9497C4.36301 14.2625 6.14348 15 8 15ZM6.53 5.47C6.38783 5.33752 6.19978 5.2654 6.00548 5.26883C5.81118 5.27225 5.62579 5.35097 5.48838 5.48838C5.35097 5.62579 5.27225 5.81118 5.26883 6.00548C5.2654 6.19978 5.33752 6.38783 5.47 6.53L6.94 8L5.47 9.47C5.39631 9.53866 5.33721 9.62146 5.29622 9.71346C5.25523 9.80546 5.23319 9.90478 5.23141 10.0055C5.22963 10.1062 5.24816 10.2062 5.28588 10.2996C5.3236 10.393 5.37974 10.4778 5.45096 10.549C5.52218 10.6203 5.60701 10.6764 5.7004 10.7141C5.79379 10.7518 5.89382 10.7704 5.99452 10.7686C6.09523 10.7668 6.19454 10.7448 6.28654 10.7038C6.37854 10.6628 6.46134 10.6037 6.53 10.53L8 9.06L9.47 10.53C9.53866 10.6037 9.62146 10.6628 9.71346 10.7038C9.80546 10.7448 9.90478 10.7668 10.0055 10.7686C10.1062 10.7704 10.2062 10.7518 10.2996 10.7141C10.393 10.6764 10.4778 10.6203 10.549 10.549C10.6203 10.4778 10.6764 10.393 10.7141 10.2996C10.7518 10.2062 10.7704 10.1062 10.7686 10.0055C10.7668 9.90478 10.7448 9.80546 10.7038 9.71346C10.6628 9.62146 10.6037 9.53866 10.53 9.47L9.06 8L10.53 6.53C10.6037 6.46134 10.6628 6.37854 10.7038 6.28654C10.7448 6.19454 10.7668 6.09523 10.7686 5.99452C10.7704 5.89382 10.7518 5.79379 10.7141 5.7004C10.6764 5.60701 10.6203 5.52218 10.549 5.45096C10.4778 5.37974 10.393 5.3236 10.2996 5.28588C10.2062 5.24816 10.1062 5.22963 10.0055 5.23141C9.90478 5.23319 9.80546 5.25523 9.71346 5.29622C9.62146 5.33721 9.53866 5.39631 9.47 5.47L8 6.94L6.53 5.47Z" fill="#375EC1"/>
</svg>
